<svg xmlns="http://www.w3.org/2000/svg" fill="none" width="146" height="146" viewBox="0 0 146 146"><path d="M132.384 65.76c0-3.52 2.953-6.4 6.562-6.4v.08c3.61 0 6.561 2.88 6.561 6.4V93.6c0 2.56-.492 5.12-1.558 7.52C132.302 128.4 105.154 146 74.89 146c-19.848 0-38.549-7.52-52.656-21.12C8.126 111.2.252 93.12.006 73.76c-.246-19.44 7.545-37.92 21.735-52C36.012 7.76 54.877 0 74.889 0c30.265 0 57.331 17.6 69.142 44.88l1.97 4.56-14.847 11.12c-4.593 3.44-10.416 4.88-16.076 3.92-5.659-.96-10.498-4-13.697-8.64C95.476 47.2 85.551 42 74.89 42c-8.612 0-16.65 3.36-22.72 9.36-5.987 6-9.267 14-9.021 22.4.41 16.56 14.517 30.08 31.495 30.24 10.827 0 20.67-5.12 26.574-13.68 3.281-4.72 8.366-7.92 14.025-8.8 5.742-.88 11.32.48 15.912 3.92l1.066.8.164-20.48zm-20.176-17.04a7.425 7.425 0 0 0 4.921 3.04h-.082c2.05.32 4.265-.16 5.905-1.44l6.644-4.96C119.016 25.2 98.101 12.8 74.807 12.8c-16.404 0-31.987 6.4-43.716 18-11.729 11.6-18.126 26.8-17.962 42.88.328 32.8 28.05 59.52 61.678 59.52 23.294 0 44.126-12.48 54.79-32.56l-6.645-4.96c-1.64-1.28-3.69-1.76-5.74-1.44a7.836 7.836 0 0 0-5.25 3.28c-8.366 12.08-22.31 19.28-37.237 19.28h-.328c-11.647-.08-22.72-4.56-31.085-12.64C34.946 96.08 30.107 85.36 29.86 74c-.246-11.92 4.265-23.2 12.795-31.68 8.53-8.48 19.93-13.2 32.151-13.2 15.092 0 29.035 7.36 37.401 19.6zM71.198 75.2q.296 0 .592-.014.295-.014.59-.042.294-.029.587-.071.293-.042.583-.099.29-.056.578-.126.287-.07.57-.154.283-.084.562-.181.279-.097.552-.208.273-.11.541-.234.268-.123.529-.26.26-.135.514-.284.254-.148.5-.309.247-.16.484-.332.238-.172.467-.355.229-.183.448-.377.22-.194.429-.398.209-.204.408-.418.198-.214.386-.437t.364-.455q.176-.232.341-.472.164-.24.317-.488.152-.248.291-.502.14-.255.266-.516.127-.26.24-.527.113-.267.213-.539.1-.272.186-.548t.158-.556q.071-.28.13-.564.057-.283.1-.568.044-.286.073-.573.029-.287.043-.576.015-.288.015-.577 0-.288-.015-.577-.014-.288-.043-.575-.03-.288-.073-.573-.043-.286-.1-.57-.059-.282-.13-.562-.072-.28-.158-.557-.086-.276-.186-.548-.1-.271-.213-.538-.113-.267-.24-.528-.126-.26-.266-.515t-.291-.503q-.153-.247-.317-.487-.165-.24-.34-.472-.177-.232-.365-.455t-.386-.437q-.2-.214-.408-.418-.21-.204-.43-.398-.218-.194-.447-.377-.229-.184-.467-.356-.237-.171-.484-.332-.246-.16-.5-.309-.253-.148-.514-.284-.261-.136-.529-.26-.268-.123-.541-.234-.273-.11-.552-.207-.279-.098-.562-.181-.283-.084-.57-.154-.287-.07-.578-.127-.29-.056-.583-.098-.293-.043-.587-.071-.295-.028-.59-.043-.296-.014-.592-.014t-.592.014q-.295.015-.59.043-.294.028-.587.07-.293.043-.583.1-.29.056-.578.126-.287.07-.57.154-.283.083-.562.18-.278.098-.552.208-.273.11-.54.234-.269.124-.53.26-.26.136-.514.284-.254.149-.5.31-.246.16-.484.331-.238.172-.467.356-.229.183-.448.377-.22.194-.428.398-.21.204-.408.418-.2.214-.387.437-.188.223-.364.455t-.34.472q-.165.24-.317.487-.153.248-.292.503-.14.254-.266.515-.127.261-.24.528-.113.267-.213.538-.1.272-.186.548-.086.277-.157.557-.072.28-.13.563-.058.283-.101.569-.044.285-.073.573-.029.287-.043.575-.015.289-.015.577 0 .289.015.577.014.289.043.576.03.287.073.573.043.285.1.568.059.284.13.564.072.28.158.556.086.276.186.548t.213.539q.113.266.24.527.126.261.266.516.14.254.292.502.152.248.316.488.165.24.34.472.177.232.365.455t.387.437q.198.214.408.418.209.204.428.398.22.194.448.377.23.183.467.355.238.172.484.332.246.16.5.31.253.148.514.284.261.136.53.26.267.123.54.233.274.11.552.208.279.097.562.18.283.085.57.155.288.07.578.126.29.057.583.099t.587.07q.295.029.59.043.296.014.592.014z" fill-rule="evenodd" fill="#AF87E2"/></svg>